{
  "accessors": [
    {
      "bufferView": 2,
      "componentType": 5126,
      "count": 4757,
      "max": [
        1.1228070259094238,
        1.1228070259094238,
        3.4906656742095947
      ],
      "min": [
        -1.1228070259094238,
        -1.1228071451187134,
        -3.490617275238037
      ],
      "type": "VEC3"
    },
    {
      "bufferView": 2,
      "byteOffset": 57084,
      "componentType": 5126,
      "count": 4757,
      "max": [
        1.0,
        1.0,
        1.0
      ],
      "min": [
        -1.0,
        -1.0,
        -1.0
      ],
      "type": "VEC3"
    },
    {
      "bufferView": 1,
      "componentType": 5126,
      "count": 4757,
      "max": [
        0.9873670339584351,
        0.9993401765823364
      ],
      "min": [
        0.0006598904728889465,
        0.0006598830223083496
      ],
      "type": "VEC2"
    },
    {
      "bufferView": 1,
      "byteOffset": 38056,
      "componentType": 5126,
      "count": 4757,
      "max": [
        0.9873670339584351,
        0.9993401765823364
      ],
      "min": [
        0.0006598904728889465,
        0.0006598830223083496
      ],
      "type": "VEC2"
    },
    {
      "bufferView": 0,
      "componentType": 5125,
      "count": 14976,
      "type": "SCALAR"
    }
  ],
  "asset": {
    "extras": {
      "author": "Borrealis (https://sketchfab.com/borrealis)",
      "license": "CC-BY-4.0 (http://creativecommons.org/licenses/by/4.0/)",
      "source": "https://sketchfab.com/3d-models/metal-dumbell-4f32658bfe5e4455a29b6c9637cbae56",
      "title": "Metal dumbell"
    },
    "generator": "Sketchfab-13.79.0",
    "version": "2.0"
  },
  "bufferViews": [
    {
      "buffer": 0,
      "byteLength": 59904,
      "name": "floatBufferViews",
      "target": 34963
    },
    {
      "buffer": 0,
      "byteLength": 76112,
      "byteOffset": 59904,
      "byteStride": 8,
      "name": "floatBufferViews",
      "target": 34962
    },
    {
      "buffer": 0,
      "byteLength": 114168,
      "byteOffset": 136016,
      "byteStride": 12,
      "name": "floatBufferViews",
      "target": 34962
    }
  ],
  "buffers": [
    {
      "byteLength": 250184,
      "uri": "scene.bin"
    }
  ],
  "images": [
    {
      "uri": "textures/material_baseColor.png"
    },
    {
      "uri": "textures/material_metallicRoughness.png"
    }
  ],
  "materials": [
    {
      "doubleSided": true,
      "name": "material",
      "pbrMetallicRoughness": {
        "baseColorTexture": {
          "index": 0
        },
        "metallicRoughnessTexture": {
          "index": 1
        }
      }
    }
  ],
  "meshes": [
    {
      "name": "dumbbell_1_0",
      "primitives": [
        {
          "attributes": {
            "NORMAL": 1,
            "POSITION": 0,
            "TEXCOORD_0": 2,
            "TEXCOORD_1": 3
          },
          "indices": 4,
          "material": 0,
          "mode": 4
        }
      ]
    }
  ],
  "nodes": [
    {
      "children": [
        1
      ],
      "matrix": [
        1.0,
        0.0,
        0.0,
        0.0,
        0.0,
        2.220446049250313e-16,
        -1.0,
        0.0,
        0.0,
        1.0,
        2.220446049250313e-16,
        0.0,
        0.0,
        0.0,
        0.0,
        1.0
      ],
      "name": "Sketchfab_model"
    },
    {
      "children": [
        2
      ],
      "matrix": [
        0.009999999776482582,
        0.0,
        0.0,
        0.0,
        0.0,
        0.0,
        0.009999999776482582,
        0.0,
        0.0,
        -0.009999999776482582,
        0.0,
        0.0,
        0.0,
        0.0,
        0.0,
        1.0
      ],
      "name": "dumbell fbx.fbx"
    },
    {
      "children": [
        3
      ],
      "name": "RootNode"
    },
    {
      "children": [
        4
      ],
      "matrix": [
        205.697509765625,
        0.0,
        0.0,
        0.0,
        0.0,
        205.6975097656248,
        8.991324449764658e-06,
        0.0,
        0.0,
        -6.2114984323761e-06,
        142.10250854492173,
        0.0,
        0.0,
        0.0,
        0.0,
        1.0
      ],
      "name": "dumbbell"
    },
    {
      "mesh": 0,
      "name": "dumbbell_1_0"
    }
  ],
  "samplers": [
    {
      "magFilter": 9729,
      "minFilter": 9987,
      "wrapS": 10497,
      "wrapT": 10497
    }
  ],
  "scene": 0,
  "scenes": [
    {
      "name": "Sketchfab_Scene",
      "nodes": [
        0
      ]
    }
  ],
  "textures": [
    {
      "sampler": 0,
      "source": 0
    },
    {
      "sampler": 0,
      "source": 1
    }
  ]
}
